<svg version="1.1" xmlns="http://www.w3.org/2000/svg" xmlns:xlink="http://www.w3.org/1999/xlink" width="512px" height="512px" viewBox="0,0,256,256"><g fill="#fa6e28" fill-rule="nonzero" stroke="none" stroke-width="1" stroke-linecap="butt" stroke-linejoin="miter" stroke-miterlimit="10" stroke-dasharray="" stroke-dashoffset="0" font-family="none" font-weight="none" font-size="none" text-anchor="none" style="mix-blend-mode: normal"><g transform="scale(0.5,0.5)"><path d="M256,512c141.4,0 256,-114.6 256,-256c0,-141.4 -114.6,-256 -256,-256c-141.4,0 -256,114.6 -256,256c0,141.4 114.6,256 256,256zM369,209l-128,128c-9.4,9.4 -24.6,9.4 -33.9,0l-64,-64c-9.4,-9.4 -9.4,-24.6 0,-33.9c9.4,-9.3 24.6,-9.4 33.9,0l47,47l111,-111.1c9.4,-9.4 24.6,-9.4 33.9,0c9.3,9.4 9.4,24.6 0,33.9z"></path></g></g></svg>